<svg width="495" height="298" viewBox="0 0 495 298" xmlns="http://www.w3.org/2000/svg">
  <defs>
    <linearGradient id="bg" x1="0" y1="0" x2="1" y2="1" gradientUnits="objectBoundingBox">
      <stop offset="0%" stop-color="#0d1117"/><stop offset="100%" stop-color="#161b22"/>
    </linearGradient>
    <linearGradient id="ac" x1="0" y1="0" x2="1" y2="0" gradientUnits="objectBoundingBox">
      <stop offset="0%" stop-color="#58a6ff"/><stop offset="100%" stop-color="#bc8cff"/>
    </linearGradient>
    <clipPath id="cl"><rect width="495" height="298" rx="10"/></clipPath>
  </defs>
  <rect width="495" height="298" rx="10" fill="url(#bg)" stroke="rgba(255,255,255,0.08)" stroke-width="1"/>
  <rect width="495" height="3" fill="url(#ac)" clip-path="url(#cl)"/>
  <text x="25" y="35" font-family="sans-serif" font-size="15" font-weight="600" fill="#e6edf3">Top Languages</text>
  <line x1="25" y1="45" x2="470" y2="45" stroke="rgba(255,255,255,0.08)" stroke-width="1"/>
  <rect x="25.0" y="52" width="77.1" height="8" fill="#3572A5"/>
  <rect x="102.1" y="52" width="74.2" height="8" fill="#f1e05a"/>
  <rect x="176.2" y="52" width="62.0" height="8" fill="#dea584"/>
  <rect x="238.2" y="52" width="60.3" height="8" fill="#E22837"/>
  <rect x="298.5" y="52" width="58.5" height="8" fill="#3178c6"/>
  <rect x="357.0" y="52" width="43.5" height="8" fill="#e38c00"/>
  <rect x="400.5" y="52" width="35.3" height="8" fill="#555555"/>
  <rect x="435.8" y="52" width="34.2" height="8" fill="#b07219"/>
  <circle cx="25" cy="74" r="5" fill="#3572A5"/><text x="38" y="79" font-family="sans-serif" font-size="12" fill="#e6edf3">Python</text><rect x="165" y="68" width="255" height="13" rx="3" fill="#3572A5" opacity="0.75"/><text x="468" y="79" font-family="monospace" font-size="11" fill="#7d8590" text-anchor="end">13.3%</text>
  <circle cx="25" cy="100" r="5" fill="#f1e05a"/><text x="38" y="105" font-family="sans-serif" font-size="12" fill="#e6edf3">JavaScript</text><rect x="165" y="94" width="245" height="13" rx="3" fill="#f1e05a" opacity="0.75"/><text x="468" y="105" font-family="monospace" font-size="11" fill="#7d8590" text-anchor="end">12.8%</text>
  <circle cx="25" cy="126" r="5" fill="#dea584"/><text x="38" y="131" font-family="sans-serif" font-size="12" fill="#e6edf3">Rust</text><rect x="165" y="120" width="205" height="13" rx="3" fill="#dea584" opacity="0.75"/><text x="468" y="131" font-family="monospace" font-size="11" fill="#7d8590" text-anchor="end">10.7%</text>
  <circle cx="25" cy="152" r="5" fill="#E22837"/><text x="38" y="157" font-family="sans-serif" font-size="12" fill="#e6edf3">mcfunction</text><rect x="165" y="146" width="199" height="13" rx="3" fill="#E22837" opacity="0.75"/><text x="468" y="157" font-family="monospace" font-size="11" fill="#7d8590" text-anchor="end">10.4%</text>
  <circle cx="25" cy="178" r="5" fill="#3178c6"/><text x="38" y="183" font-family="sans-serif" font-size="12" fill="#e6edf3">TypeScript</text><rect x="165" y="172" width="193" height="13" rx="3" fill="#3178c6" opacity="0.75"/><text x="468" y="183" font-family="monospace" font-size="11" fill="#7d8590" text-anchor="end">10.1%</text>
  <circle cx="25" cy="204" r="5" fill="#e38c00"/><text x="38" y="209" font-family="sans-serif" font-size="12" fill="#e6edf3">SQL</text><rect x="165" y="198" width="143" height="13" rx="3" fill="#e38c00" opacity="0.75"/><text x="468" y="209" font-family="monospace" font-size="11" fill="#7d8590" text-anchor="end">7.5%</text>
  <circle cx="25" cy="230" r="5" fill="#555555"/><text x="38" y="235" font-family="sans-serif" font-size="12" fill="#e6edf3">C</text><rect x="165" y="224" width="116" height="13" rx="3" fill="#555555" opacity="0.75"/><text x="468" y="235" font-family="monospace" font-size="11" fill="#7d8590" text-anchor="end">6.1%</text>
  <circle cx="25" cy="256" r="5" fill="#b07219"/><text x="38" y="261" font-family="sans-serif" font-size="12" fill="#e6edf3">Java</text><rect x="165" y="250" width="113" height="13" rx="3" fill="#b07219" opacity="0.75"/><text x="468" y="261" font-family="monospace" font-size="11" fill="#7d8590" text-anchor="end">5.9%</text>
  <text x="25" y="288" font-family="sans-serif" font-size="10" fill="rgba(125,133,144,0.35)">Updated 2026-06-01</text>
</svg>